# Blender 4.5.3 LTS
# www.blender.org
mtllib board.mtl
o board
v 0.250000 0.015000 -0.127500
v 0.212500 0.015000 -0.150000
v 0.248165 0.015000 -0.134453
v 0.242838 0.015000 -0.140725
v 0.234542 0.015000 -0.145703
v 0.224088 0.015000 -0.148899
v 0.212500 0.000000 -0.150000
v 0.250000 0.000000 -0.127500
v 0.224088 0.000000 -0.148899
v 0.234542 0.000000 -0.145703
v 0.242838 0.000000 -0.140725
v 0.248165 0.000000 -0.134453
v 0.212500 0.015000 0.150000
v 0.250000 0.015000 0.127500
v 0.224088 0.015000 0.148899
v 0.234542 0.015000 0.145703
v 0.242838 0.015000 0.140725
v 0.248165 0.015000 0.134453
v 0.250000 0.000000 0.127500
v 0.212500 0.000000 0.150000
v 0.248165 0.000000 0.134453
v 0.242838 0.000000 0.140725
v 0.234542 0.000000 0.145703
v 0.224088 0.000000 0.148899
v -0.212500 0.015000 -0.150000
v -0.250000 0.015000 -0.127500
v -0.224088 0.015000 -0.148899
v -0.234542 0.015000 -0.145703
v -0.242838 0.015000 -0.140725
v -0.248165 0.015000 -0.134453
v -0.250000 0.000000 -0.127500
v -0.212500 0.000000 -0.150000
v -0.248165 0.000000 -0.134453
v -0.242838 0.000000 -0.140725
v -0.234542 0.000000 -0.145703
v -0.224088 0.000000 -0.148899
v -0.250000 0.015000 0.127500
v -0.212500 0.015000 0.150000
v -0.248165 0.015000 0.134453
v -0.242838 0.015000 0.140725
v -0.234542 0.015000 0.145703
v -0.224088 0.015000 0.148899
v -0.212500 0.000000 0.150000
v -0.250000 0.000000 0.127500
v -0.224088 0.000000 0.148899
v -0.234542 0.000000 0.145703
v -0.242838 0.000000 0.140725
v -0.248165 0.000000 0.134453
v -0.195000 0.015000 0.042000
v -0.194680 0.015000 0.044336
v -0.195000 0.015000 -0.042000
v -0.193737 0.015000 0.046556
v -0.193737 0.015000 -0.046556
v -0.192218 0.015000 0.048547
v -0.194680 0.015000 -0.044336
v -0.190199 0.015000 0.050209
v -0.190199 0.015000 -0.050209
v -0.185087 0.015000 0.052237
v -0.185087 0.015000 -0.052237
v -0.187782 0.015000 0.051460
v -0.187782 0.015000 -0.051460
v -0.182250 0.015000 0.052500
v -0.182250 0.015000 -0.052500
v -0.192218 0.015000 -0.048547
v -0.177750 0.015000 -0.052500
v -0.169801 0.015000 0.050209
v -0.172218 0.015000 0.051460
v -0.172218 0.015000 -0.051460
v -0.174913 0.015000 0.052237
v -0.174913 0.015000 -0.052237
v -0.166263 0.015000 0.046556
v -0.167782 0.015000 -0.048547
v -0.165000 0.015000 -0.042000
v -0.165000 0.015000 0.042000
v -0.165320 0.015000 0.044336
v -0.165320 0.015000 -0.044336
v -0.167782 0.015000 0.048547
v -0.166263 0.015000 -0.046556
v -0.177750 0.015000 0.052500
v -0.169801 0.015000 -0.050209
v -0.195000 0.000000 0.042000
v -0.194680 0.000000 0.044336
v -0.195000 0.000000 -0.042000
v -0.193737 0.000000 0.046556
v -0.193737 0.000000 -0.046556
v -0.192218 0.000000 0.048547
v -0.194680 0.000000 -0.044336
v -0.190199 0.000000 0.050209
v -0.190199 0.000000 -0.050209
v -0.185087 0.000000 0.052237
v -0.185087 0.000000 -0.052237
v -0.187782 0.000000 0.051460
v -0.187782 0.000000 -0.051460
v -0.182250 0.000000 0.052500
v -0.192218 0.000000 -0.048547
v -0.182250 0.000000 -0.052500
v -0.177750 0.000000 0.052500
v -0.169801 0.000000 -0.050209
v -0.172218 0.000000 0.051460
v -0.172218 0.000000 -0.051460
v -0.174913 0.000000 0.052237
v -0.174913 0.000000 -0.052237
v -0.167782 0.000000 0.048547
v -0.166263 0.000000 -0.046556
v -0.165000 0.000000 -0.042000
v -0.165000 0.000000 0.042000
v -0.165320 0.000000 0.044336
v -0.165320 0.000000 -0.044336
v -0.166263 0.000000 0.046556
v -0.167782 0.000000 -0.048547
v -0.169801 0.000000 0.050209
v -0.177750 0.000000 -0.052500
vn 0.9917 -0.0000 -0.1287
vn 0.8865 -0.0000 -0.4627
vn 0.6470 -0.0000 -0.7625
vn 0.4064 -0.0000 -0.9137
vn 0.1945 -0.0000 -0.9809
vn 0.0474 -0.0000 -0.9989
vn -0.0474 -0.0000 0.9989
vn -0.1945 -0.0000 0.9809
vn -0.4064 -0.0000 0.9137
vn -0.6470 -0.0000 0.7625
vn -0.8865 -0.0000 0.4627
vn -0.9917 -0.0000 0.1287
vn 0.0474 -0.0000 0.9989
vn 0.1945 -0.0000 0.9809
vn 0.4064 -0.0000 0.9137
vn 0.6470 -0.0000 0.7625
vn 0.8865 -0.0000 0.4627
vn 0.9917 -0.0000 0.1287
vn -0.0474 -0.0000 -0.9989
vn -0.1945 -0.0000 -0.9809
vn -0.4064 -0.0000 -0.9137
vn -0.6470 -0.0000 -0.7625
vn -0.8865 -0.0000 -0.4627
vn -0.9917 -0.0000 -0.1287
vn -0.0000 1.0000 -0.0000
vn -0.0000 -1.0000 -0.0000
vn -0.9977 -0.0000 -0.0679
vn -0.9977 -0.0000 0.0679
vn 0.9977 -0.0000 0.0679
vn 0.9977 -0.0000 -0.0679
vn 0.1855 -0.0000 -0.9827
vn 0.0462 -0.0000 -0.9989
vn 0.3700 -0.0000 -0.9290
vn 0.5507 -0.0000 -0.8347
vn 0.7201 -0.0000 -0.6938
vn 0.8644 -0.0000 -0.5027
vn 0.9641 -0.0000 -0.2657
vn 0.0462 -0.0000 0.9989
vn 0.1855 -0.0000 0.9827
vn 0.3700 -0.0000 0.9290
vn 0.5507 -0.0000 0.8347
vn 0.7201 -0.0000 0.6938
vn 0.8644 -0.0000 0.5027
vn 0.9641 -0.0000 0.2657
vn -0.9641 -0.0000 0.2657
vn -0.8644 -0.0000 0.5027
vn -0.7201 -0.0000 0.6938
vn -0.5507 -0.0000 0.8347
vn -0.3700 -0.0000 0.9290
vn -0.1855 -0.0000 0.9827
vn -0.0462 -0.0000 0.9989
vn -0.0462 -0.0000 -0.9989
vn -0.1855 -0.0000 -0.9827
vn -0.3700 -0.0000 -0.9290
vn -0.5507 -0.0000 -0.8347
vn -0.7201 -0.0000 -0.6938
vn -0.8644 -0.0000 -0.5027
vn -0.9641 -0.0000 -0.2657
vt 0.975356 0.396653
vt 0.998191 0.396653
vt 0.998191 0.407516
vt 0.975356 0.407516
vt 0.998191 0.418061
vt 0.975356 0.418061
vt 0.922451 0.001809
vt 0.945287 0.001809
vt 0.945287 0.014115
vt 0.922451 0.014115
vt 0.945287 0.029814
vt 0.922451 0.029814
vt 0.945287 0.047371
vt 0.922451 0.047371
vt 0.971739 0.045033
vt 0.948904 0.045033
vt 0.948904 0.027910
vt 0.971739 0.027910
vt 0.948904 0.013016
vt 0.971739 0.013016
vt 0.948904 0.001809
vt 0.971739 0.001809
vt 0.998191 0.837931
vt 0.975356 0.837931
vt 0.975356 0.827386
vt 0.998191 0.827386
vt 0.975356 0.816523
vt 0.998191 0.816523
vt 0.948904 0.683175
vt 0.971739 0.683175
vt 0.971739 0.700852
vt 0.948904 0.700852
vt 0.971739 0.717350
vt 0.948904 0.717350
vt 0.971739 0.731057
vt 0.948904 0.731057
vt 0.971739 0.740629
vt 0.948904 0.740629
vt 0.975356 0.001809
vt 0.998191 0.001809
vt 0.998191 0.011926
vt 0.975356 0.011926
vt 0.922451 0.693817
vt 0.945287 0.693817
vt 0.945287 0.711513
vt 0.922451 0.711513
vt 0.945287 0.727614
vt 0.922451 0.727614
vt 0.945287 0.740546
vt 0.922451 0.740546
vt 0.945287 0.749042
vt 0.922451 0.749042
vt 0.975356 0.421678
vt 0.998191 0.421678
vt 0.998191 0.431796
vt 0.975356 0.431796
vt 0.451971 0.025341
vt 0.456836 0.041255
vt 0.458513 0.058897
vt 0.458513 0.705894
vt 0.456836 0.723535
vt 0.309683 0.664162
vt 0.310084 0.659843
vt 0.310084 0.652993
vt 0.309683 0.648674
vt 0.308501 0.644571
vt 0.306597 0.640891
vt 0.304066 0.637817
vt 0.301035 0.635505
vt 0.297656 0.634069
vt 0.294099 0.633583
vt 0.166222 0.633583
vt 0.162665 0.634069
vt 0.159287 0.635505
vt 0.156256 0.637817
vt 0.153725 0.640891
vt 0.151820 0.644571
vt 0.150638 0.648674
vt 0.150237 0.652993
vt 0.150237 0.659843
vt 0.150638 0.664162
vt 0.008350 0.739450
vt 0.003485 0.723535
vt 0.001809 0.705894
vt 0.001809 0.058897
vt 0.003485 0.041255
vt 0.008350 0.025341
vt 0.015928 0.012711
vt 0.025477 0.004603
vt 0.036061 0.001809
vt 0.424260 0.001809
vt 0.434845 0.004603
vt 0.444393 0.012711
vt 0.444393 0.752079
vt 0.434845 0.760188
vt 0.424260 0.762982
vt 0.036061 0.762982
vt 0.025477 0.760188
vt 0.015928 0.752079
vt 0.151820 0.668265
vt 0.153725 0.671945
vt 0.156256 0.675019
vt 0.159287 0.677331
vt 0.162665 0.678766
vt 0.166222 0.679253
vt 0.294099 0.679253
vt 0.297656 0.678766
vt 0.301035 0.677331
vt 0.304066 0.675019
vt 0.306597 0.671945
vt 0.308501 0.668265
vt 0.451971 0.739450
vt 0.912293 0.025341
vt 0.917158 0.041255
vt 0.918834 0.058897
vt 0.918834 0.705894
vt 0.917158 0.723535
vt 0.912293 0.739450
vt 0.904715 0.752079
vt 0.895166 0.760188
vt 0.884581 0.762982
vt 0.496383 0.762982
vt 0.485798 0.760188
vt 0.476249 0.752079
vt 0.468672 0.739450
vt 0.463806 0.723535
vt 0.462130 0.705894
vt 0.462130 0.058897
vt 0.463806 0.041255
vt 0.468672 0.025341
vt 0.476250 0.012711
vt 0.485798 0.004603
vt 0.496383 0.001809
vt 0.612142 0.096526
vt 0.610960 0.100628
vt 0.610559 0.104948
vt 0.610559 0.111798
vt 0.610960 0.116117
vt 0.612142 0.120220
vt 0.614046 0.123900
vt 0.616577 0.126973
vt 0.619608 0.129286
vt 0.622987 0.130721
vt 0.626544 0.131208
vt 0.754421 0.131208
vt 0.757978 0.130721
vt 0.761356 0.129286
vt 0.764387 0.126973
vt 0.766918 0.123900
vt 0.768822 0.120220
vt 0.770005 0.116117
vt 0.770405 0.111798
vt 0.770405 0.104948
vt 0.770005 0.100628
vt 0.884581 0.001809
vt 0.895166 0.004603
vt 0.904715 0.012711
vt 0.768822 0.096526
vt 0.766918 0.092846
vt 0.764387 0.089772
vt 0.761356 0.087460
vt 0.757978 0.086024
vt 0.754421 0.085538
vt 0.626544 0.085538
vt 0.622987 0.086024
vt 0.619608 0.087460
vt 0.616577 0.089772
vt 0.614046 0.092846
vt 0.001809 0.906694
vt 0.001809 0.779960
vt 0.024644 0.779960
vt 0.024644 0.906694
vt 0.051096 0.903775
vt 0.028261 0.903775
vt 0.028261 0.777041
vt 0.051096 0.777041
vt 0.054713 0.793154
vt 0.054713 0.788855
vt 0.077548 0.788855
vt 0.077548 0.793154
vt 0.054713 0.797204
vt 0.077548 0.797204
vt 0.054713 0.800803
vt 0.077548 0.800803
vt 0.077548 0.803769
vt 0.054713 0.803769
vt 0.051096 0.769912
vt 0.028261 0.769912
vt 0.028261 0.766599
vt 0.051096 0.766599
vt 0.051096 0.773451
vt 0.028261 0.773451
vt 0.104001 0.785340
vt 0.081166 0.785340
vt 0.081166 0.781014
vt 0.104001 0.781014
vt 0.081166 0.776772
vt 0.104001 0.776772
vt 0.081166 0.772829
vt 0.104001 0.772829
vt 0.081166 0.769380
vt 0.104001 0.769380
vt 0.081166 0.766599
vt 0.104001 0.766599
vt 0.051096 0.910392
vt 0.028261 0.910392
vt 0.028261 0.907235
vt 0.051096 0.907235
vt 0.001809 0.776370
vt 0.024644 0.776370
vt 0.001809 0.772830
vt 0.024644 0.772830
vt 0.001809 0.769518
vt 0.024644 0.769518
vt 0.001809 0.766599
vt 0.024644 0.766599
vt 0.104001 0.803458
vt 0.081166 0.803458
vt 0.081166 0.800142
vt 0.104001 0.800142
vt 0.081166 0.796290
vt 0.104001 0.796290
vt 0.081166 0.792097
vt 0.104001 0.792097
vt 0.054713 0.782010
vt 0.054713 0.777678
vt 0.077549 0.777678
vt 0.077549 0.782010
vt 0.054713 0.773530
vt 0.077549 0.773530
vt 0.054713 0.769775
vt 0.077549 0.769775
vt 0.054713 0.766599
vt 0.077549 0.766599
vt 0.001809 0.916006
vt 0.001809 0.913311
vt 0.024644 0.913311
vt 0.024644 0.916006
vt 0.001809 0.910154
vt 0.024644 0.910154
s 1
usemtl wood_board
f 1/1/1 8/2/1 12/3/2 3/4/2
f 3/4/2 12/3/2 11/5/3 4/6/3
f 4/7/3 11/8/3 10/9/4 5/10/4
f 5/10/4 10/9/4 9/11/5 6/12/5
f 6/12/5 9/11/5 7/13/6 2/14/6
f 43/15/7 38/16/7 42/17/8 45/18/8
f 45/18/8 42/17/8 41/19/9 46/20/9
f 46/20/9 41/19/9 40/21/10 47/22/10
f 47/23/10 40/24/10 39/25/11 48/26/11
f 48/26/11 39/25/11 37/27/12 44/28/12
f 13/29/13 20/30/13 24/31/14 15/32/14
f 15/32/14 24/31/14 23/33/15 16/34/15
f 16/34/15 23/33/15 22/35/16 17/36/16
f 17/36/16 22/35/16 21/37/17 18/38/17
f 18/39/17 21/40/17 19/41/18 14/42/18
f 25/43/19 32/44/19 36/45/20 27/46/20
f 27/46/20 36/45/20 35/47/21 28/48/21
f 28/48/21 35/47/21 34/49/22 29/50/22
f 29/50/22 34/49/22 33/51/23 30/52/23
f 30/53/23 33/54/23 31/55/24 26/56/24
f 32/44/19 25/43/19 2/14/6 7/13/6
f 8/2/1 1/1/1 14/42/18 19/41/18
f 5/57/25 6/58/25 2/59/25 25/60/25 27/61/25 59/62/25 63/63/25 65/64/25 70/65/25 68/66/25 80/67/25 72/68/25 78/69/25 76/70/25 73/71/25 74/72/25 75/73/25 71/74/25 77/75/25 66/76/25 67/77/25 69/78/25 79/79/25 62/80/25 58/81/25 41/82/25 42/83/25 38/84/25 13/85/25 15/86/25 16/87/25 17/88/25 18/89/25 14/90/25 1/91/25 3/92/25 4/93/25
f 29/94/25 30/95/25 26/96/25 37/97/25 39/98/25 40/99/25 41/82/25 58/81/25 60/100/25 56/101/25 54/102/25 52/103/25 50/104/25 49/105/25 51/106/25 55/107/25 53/108/25 64/109/25 57/110/25 61/111/25 59/62/25 27/61/25 28/112/25
f 35/113/26 36/114/26 32/115/26 7/116/26 9/117/26 10/118/26 11/119/26 12/120/26 8/121/26 19/122/26 21/123/26 22/124/26 23/125/26 24/126/26 20/127/26 43/128/26 45/129/26 46/130/26 47/131/26 48/132/26 44/133/26 92/134/26 90/135/26 94/136/26 97/137/26 101/138/26 99/139/26 111/140/26 103/141/26 109/142/26 107/143/26 106/144/26 105/145/26 108/146/26 104/147/26 110/148/26 98/149/26 100/150/26 102/151/26 112/152/26 96/153/26 91/154/26
f 92/134/26 44/133/26 31/155/26 33/156/26 34/157/26 35/113/26 91/154/26 93/158/26 89/159/26 95/160/26 85/161/26 87/162/26 83/163/26 81/164/26 82/165/26 84/166/26 86/167/26 88/168/26
f 20/30/13 13/29/13 38/16/7 43/15/7
f 44/28/12 37/27/12 26/56/24 31/55/24
f 74/169/27 73/170/28 105/171/28 106/172/27
f 83/173/29 51/174/29 49/175/30 81/176/30
f 58/177/31 62/178/32 94/179/32 90/180/31
f 60/181/33 58/177/31 90/180/31 92/182/33
f 56/183/34 60/181/33 92/182/33 88/184/34
f 86/185/35 54/186/35 56/183/34 88/184/34
f 84/187/36 52/188/36 54/189/35 86/190/35
f 82/191/37 50/192/37 52/188/36 84/187/36
f 81/176/30 49/175/30 50/192/37 82/191/37
f 96/193/38 63/194/38 59/195/39 91/196/39
f 91/196/39 59/195/39 61/197/40 93/198/40
f 93/198/40 61/197/40 57/199/41 89/200/41
f 89/200/41 57/199/41 64/201/42 95/202/42
f 95/202/42 64/201/42 53/203/43 85/204/43
f 85/205/43 53/206/43 55/207/44 87/208/44
f 87/208/44 55/207/44 51/174/29 83/173/29
f 73/170/28 76/209/45 108/210/45 105/171/28
f 76/209/45 78/211/46 104/212/46 108/210/45
f 78/211/46 72/213/47 110/214/47 104/212/46
f 72/213/47 80/215/48 98/216/48 110/214/47
f 98/217/48 80/218/48 68/219/49 100/220/49
f 100/220/49 68/219/49 70/221/50 102/222/50
f 102/222/50 70/221/50 65/223/51 112/224/51
f 79/225/52 69/226/53 101/227/53 97/228/52
f 69/226/53 67/229/54 99/230/54 101/227/53
f 67/229/54 66/231/55 111/232/55 99/230/54
f 66/231/55 77/233/56 103/234/56 111/232/55
f 77/235/56 71/236/57 109/237/57 103/238/56
f 71/236/57 75/239/58 107/240/58 109/237/57
f 75/239/58 74/169/27 106/172/27 107/240/58
f 62/178/32 79/225/52 97/228/52 94/179/32
f 112/224/51 65/223/51 63/194/38 96/193/38
